<svg id="Layer_1" data-name="Layer 1" xmlns="http://www.w3.org/2000/svg" viewBox="0 0 98.08 98.07"><defs><style>.cls-1{fill:#8a8a8a;}.cls-2{fill:#f7f7f7;}.cls-3{fill:#fff;}</style></defs><title>Artboard 1Yelp Icon</title><path class="cls-1" d="M0,48.91A49,49,0,1,1,48.77,98.07,49,49,0,0,1,0,48.91ZM48.75,91.46A42.43,42.43,0,1,0,6.61,48.76,42.48,42.48,0,0,0,48.75,91.46Z"/><path class="cls-2" d="M48.75,91.46A42.43,42.43,0,1,1,91.46,49.31,42.46,42.46,0,0,1,48.75,91.46ZM49,89A40,40,0,1,0,9,49,40.11,40.11,0,0,0,49,89Z"/><path class="cls-1" d="M49,89A40,40,0,1,1,89,49,40.09,40.09,0,0,1,49,89Z"/><path class="cls-3" d="M40.67,45.21c0-.67,0-1.33,0-2A4.65,4.65,0,0,1,41,41.35a3.64,3.64,0,0,1,4.16-2,3.46,3.46,0,0,1,2.75,3.36c0,.33-.15.79.09.95s.56-.24.85-.38a3.5,3.5,0,0,1,2.92,0,1.57,1.57,0,0,0,1.11.05,6.52,6.52,0,0,1,6.42,1.56c.25.23.34.21.42-.11a3.44,3.44,0,0,1,.7-1.45,3,3,0,0,1,3.37-1c.5.15,1,.35,1.6.57-.39-.64-.71-1.19-1-1.73l-2.46-3.86A3.11,3.11,0,0,1,63,32.77,13.27,13.27,0,0,1,69.4,31a3.09,3.09,0,0,1,3.23,2.92c.16,2.13.33,4.26.45,6.38,0,.11,0,.23.11.35a4.13,4.13,0,0,0,.88-1.08c1.45-2.06,3.88-1.8,5.35-.14a13.59,13.59,0,0,1,2.39,3.66,3.21,3.21,0,0,1-2.31,4.69c-.19,0-.41,0-.58.25.53.21,1,.4,1.55.62a3.07,3.07,0,0,1,1.67,3.78,10.14,10.14,0,0,1-2.62,3.94A4.55,4.55,0,0,1,77,57.81a3.16,3.16,0,0,1-2.94-1.32,6,6,0,0,0-.86-1.23c0,.65,0,1.21-.11,1.78a3.07,3.07,0,0,1-2.81,2.55,8.08,8.08,0,0,1-4-.88,5.72,5.72,0,0,0-4-.28,3.58,3.58,0,0,1-2.15,0,1.57,1.57,0,0,0-1.69.26,5.86,5.86,0,0,1-3.65,1.2c-.48,0-.67.15-.75.63a3.47,3.47,0,0,1-3.9,3,3.58,3.58,0,0,1-3.3-3.63c0-.25.13-.59-.09-.72s-.41.17-.6.29a3.65,3.65,0,0,1-5-1.37c-.2-.41-.35-.38-.64-.1a7.38,7.38,0,0,1-4.07,1.86,7.23,7.23,0,0,1-5.36-1A6.24,6.24,0,0,1,28.78,56c-.09-.21-.19-.42-.34-.75l-.7,2.11a14.42,14.42,0,0,1-1.31,3.33A4.88,4.88,0,0,1,22.56,63a5.53,5.53,0,0,1-3.34-.52,3.29,3.29,0,0,1-1.8-3.08,3.18,3.18,0,0,1,1.81-3c.58-.32.6-.31.32-.87-1.12-2.3-2.28-4.59-3.36-6.91a3.64,3.64,0,0,1,.55-4.16,3.55,3.55,0,0,1,3.64-1.16A3.07,3.07,0,0,1,22.51,45l.74,1.39c.07.12.12.3.28.28s.12-.21.16-.32a6,6,0,0,1,1.2-2.2,3.59,3.59,0,0,1,4.92,0c.62.6.62.59,1.33.15a7.89,7.89,0,0,1,8.56.24c.3.23.56.51.84.77Zm7-.5c0-.46,0-.84,0-1.21A4.61,4.61,0,0,0,47.07,41a3.26,3.26,0,0,0-3.72-1.24,3.18,3.18,0,0,0-2.29,3.17c0,1,0,2,0,2.92,0,.16.06.35-.09.5,0,0-.1,0-.12-.06s-.18-.22-.26-.34a5,5,0,0,0-2.41-2,7.28,7.28,0,0,0-7.43,1c-.35.28-.49.26-.71-.11a3.37,3.37,0,0,0-3.46-1.38,3.31,3.31,0,0,0-2.17,1.88,18.57,18.57,0,0,0-.65,2c0,.08-.08.21-.14.23s-.15-.13-.2-.22c-.38-.7-.73-1.41-1.13-2.1a3.08,3.08,0,0,0-3.7-1.54A3.35,3.35,0,0,0,16.18,47a5,5,0,0,0,.65,2.28c1.08,2.2,2.18,4.39,3.28,6.58.2.39.17.58-.28.73A2.85,2.85,0,0,0,18,58.17a3.15,3.15,0,0,0,2.05,4.3,6,6,0,0,0,2.31.19,4.67,4.67,0,0,0,4.27-3.21c.62-1.58,1.05-3.21,1.59-4.81.06-.16.06-.37.25-.49a1.88,1.88,0,0,1,.23.65A6.32,6.32,0,0,0,32,58.91a7.39,7.39,0,0,0,5.13.42,6.07,6.07,0,0,0,3.71-2.26c.06-.08.11-.19.21-.17s.15.23.19.35a3.25,3.25,0,0,0,5.38,1.43,1.89,1.89,0,0,1,.57-.51c0,.66.08,1.26.1,1.86a3.26,3.26,0,0,0,6.5.19c.06-.74.05-.75.8-.74a5.64,5.64,0,0,0,4-1.39,1,1,0,0,1,.61-.24,2.61,2.61,0,0,1,1.21.22,2.06,2.06,0,0,0,1.5.1,7.84,7.84,0,0,1,2.92-.32,2,2,0,0,1,1,.24,11.08,11.08,0,0,0,3.67,1.16,2.88,2.88,0,0,0,3.18-2,4.79,4.79,0,0,0,.13-1.46c0-.57,0-1.13,0-1.7.27,0,.31.17.39.28.32.51.65,1,1,1.54a2.78,2.78,0,0,0,4.33.83,10.62,10.62,0,0,0,3.2-4.1,2.75,2.75,0,0,0-1.63-3.84l-.82-.28L77.54,48a10.86,10.86,0,0,1,2-.57,2.82,2.82,0,0,0,2-4,11,11,0,0,0-2.83-4.15,2.75,2.75,0,0,0-4.25.37c-.46.59-.9,1.19-1.36,1.79-.07.09-.1.24-.27.21,0,0,0-.06,0-.09-.17-2.48-.36-5-.5-7.43a2.77,2.77,0,0,0-2.83-2.76A12.66,12.66,0,0,0,63.32,33a2.75,2.75,0,0,0-1,4.25c1.27,2,2.51,4,3.76,5.93.07.1.21.22.13.33s-.26,0-.38,0l-2.09-.83a2.49,2.49,0,0,0-2.44.36,3.56,3.56,0,0,0-1.34,2.35c0,.15,0,.37-.15.42s-.24-.17-.34-.27a6.15,6.15,0,0,0-6.77-1.8,1.07,1.07,0,0,1-.82-.09,3.32,3.32,0,0,0-3.44.34A8.53,8.53,0,0,0,47.64,44.71Z"/><path class="cls-3" d="M49.06,53.14V46.65c0-.89.32-1.3,1.07-1.47a1.17,1.17,0,0,1,1.43.57c.2.34.35.4.69.17a4.43,4.43,0,0,1,4.92,0,3.53,3.53,0,0,1,1.63,2.27,12.31,12.31,0,0,1-.12,6.65,4.26,4.26,0,0,1-5.81,2.45,3.06,3.06,0,0,1-.49-.3c-.29-.21-.41-.1-.42.21s0,.73,0,1.1a11.41,11.41,0,0,1-.07,1.85,1.25,1.25,0,0,1-1.25,1.16,1.42,1.42,0,0,1-1.49-1,2.69,2.69,0,0,1-.09-.8V53.14Zm8.41-1.86a7,7,0,0,0-.1-1.64c0-.19-.09-.37-.14-.55a1.62,1.62,0,0,0-1.72-1.35,1.81,1.81,0,0,0-2,1.4,8.81,8.81,0,0,0-.09,4.3,1.94,1.94,0,0,0,3.8.09A7,7,0,0,0,57.47,51.28Z"/><path class="cls-3" d="M36.44,52.54H33.77c-.56,0-.67.15-.63.7a2.14,2.14,0,0,0,2.69,1.87,4.41,4.41,0,0,0,1.81-1c.61-.49,1.12-.54,1.6-.16a1.35,1.35,0,0,1,.31,1.69A3.08,3.08,0,0,1,38.09,57a6.4,6.4,0,0,1-4.36.58,3.91,3.91,0,0,1-2.9-2.39,9.69,9.69,0,0,1-.11-7.05c.66-1.94,2.24-2.71,4.19-2.84a6,6,0,0,1,1.34,0A4.17,4.17,0,0,1,39.9,49,11.38,11.38,0,0,1,40,51.7c0,.57-.31.82-.89.83H36.44ZM34.7,50.37h1.48c1,0,1-.09.78-1a2.09,2.09,0,0,0-2.49-1.49,2.4,2.4,0,0,0-2.09,2.09c0,.31.1.44.41.44Z"/><path class="cls-3" d="M24.14,52.6l1.21-4.1c.21-.71.39-1.42.65-2.1.38-1,1.08-1.34,2-.93A1.29,1.29,0,0,1,28.69,47a23.51,23.51,0,0,1-.82,2.75c-.85,2.7-1.72,5.4-2.58,8.09a6.81,6.81,0,0,1-.81,1.83,2.4,2.4,0,0,1-1.44,1,4.44,4.44,0,0,1-2.45,0,1.29,1.29,0,0,1-1-1.35,1.25,1.25,0,0,1,1.13-1.17,6.06,6.06,0,0,1,.85,0c.85,0,1.26-.58,1-1.38-.24-.64-.56-1.25-.86-1.86Q20,51.52,18.37,48.16a2.94,2.94,0,0,1-.33-1,1.5,1.5,0,0,1,1-1.62,1.29,1.29,0,0,1,1.64.69c1,1.84,2,3.69,2.94,5.53C23.79,52,23.93,52.22,24.14,52.6Z"/><path class="cls-3" d="M71.07,43.31a3,3,0,0,1-.89,2c-.31.39-.94.27-1.33-.19a15.4,15.4,0,0,1-1.28-1.9c-.67-1-1.32-2.09-2-3.14l-2-3.08a1.87,1.87,0,0,1,.68-2.54,10.85,10.85,0,0,1,2.59-.94,9.33,9.33,0,0,1,2.4-.39c.72,0,1.07.28,1.14,1,.1.9.15,1.81.21,2.71C70.8,39,70.93,41.17,71.07,43.31Z"/><path class="cls-3" d="M45.76,49.66q0,3.26,0,6.5a1.37,1.37,0,0,1-1.28,1.55A1.33,1.33,0,0,1,43,56.63a4.08,4.08,0,0,1-.08-.85q0-6.44,0-12.85a1.39,1.39,0,0,1,1.79-1.42,1.11,1.11,0,0,1,1,1,7.73,7.73,0,0,1,.07,1Q45.77,46.56,45.76,49.66Z"/><path class="cls-3" d="M61.32,48.5a11.1,11.1,0,0,1,.61-3.4.88.88,0,0,1,1.3-.65c1.72.67,3.43,1.37,5.14,2.08a1,1,0,0,1,.61.95,2.3,2.3,0,0,1-1.25,1.81c-1.4.63-2.89,1-4.31,1.47-.26.09-.52.16-.78.23a.74.74,0,0,1-1-.46A7,7,0,0,1,61.32,48.5Z"/><path class="cls-3" d="M73.12,52.14a2.12,2.12,0,0,1-.39-.75A2.55,2.55,0,0,1,73.27,49a1.12,1.12,0,0,1,1.13-.13l3.08,1,2,.67c.43.15.63.47.62,1.08a4.58,4.58,0,0,1-.77,1.66,14.9,14.9,0,0,1-2,2.49c-.36.35-.77.66-1.26.46s-.53-.62-.94-1.15"/><path class="cls-3" d="M72.32,46.46a4.2,4.2,0,0,1,.54-1.57c1-1.34,2-2.71,3-4.06.54-.72,1-.76,1.67-.15a9,9,0,0,1,2.29,3.42,1.65,1.65,0,0,1-.16,1.26c-.39,1-1.32,1-2.13,1.25-1.3.34-2.6.63-3.9.94A1,1,0,0,1,72.32,46.46Z"/><path class="cls-3" d="M71,53.64c0,.75,0,1.5,0,2.24A2.86,2.86,0,0,1,70.13,58a.83.83,0,0,1-.76.18,7.69,7.69,0,0,1-2.86-.88,9.28,9.28,0,0,1-1.06-.6c-.19-.14-.4-.3-.38-.57a2.8,2.8,0,0,1,.44-1.72C66.66,53,67.83,51.62,69,50.25A1,1,0,0,1,70.22,50,1,1,0,0,1,71,51c0,.88,0,1.75,0,2.63Z"/><path class="cls-3" d="M61.36,56.93a.82.82,0,0,1-.82-.81.86.86,0,0,1,.87-.83.84.84,0,0,1,.79.84A.83.83,0,0,1,61.36,56.93Z"/></svg>